<svg version="1.1" id="图层_1" xmlns="http://www.w3.org/2000/svg" x="0" y="0" viewBox="0 0 200 200" xml:space="preserve"><style>.st0{fill:#3b77e3}</style><g id="XMLID_1_"><path id="XMLID_30_" class="st0" d="M118.1 181H21.3c-3.4 0-6.3-2.5-6.3-5.9V52.5c1-.8 1.8-1.5 2.9-1.5h157.8c1.1 0 2.3.7 2.3 1.5v55.1c4 2.1 8 4.6 11 7.7V25.4C189 16 181.6 8 172.2 8H21.3C11.9 8 4 16.1 4 25.5v149.7c0 9.4 7.9 16.8 17.3 16.8h109.2c-4.7-3-8.9-6-12.4-11zM15 25.4c0-3.4 2.9-6.4 6.3-6.4h151c3.4 0 5.7 3 5.7 6.4V43c-1-.2-1.3 0-2.3 0H17.9c-1 0-1.9-.2-2.9 0V25.4z"/><path id="XMLID_46_" class="st0" d="M160.5 67c0-2.4-1.9-4-4.3-4H96c-2.4 0-4.4 1.6-4.4 4s2 4 4.4 4h60.1c2.4 0 4.4-1.6 4.4-4z"/><path id="XMLID_47_" class="st0" d="M131.2 86c-2.4 0-4.4 2.1-4.4 4.5s2 4.5 4.4 4.5h20.4c2.4 0 4.4-2.1 4.4-4.5s-2-4.5-4.4-4.5h-20.4z"/><path id="XMLID_50_" class="st0" d="M20 170.5c0 2.4 2 4.4 4.4 4.4 2.4 0 4.4-2 4.4-4.4 0-19.5 15.7-35.2 35.2-35.2 8.2 0 16.2 2.8 22.5 8.1 1.9 1.5 4.6 1.3 6.1-.5.4-.5.8-1.1.9-1.7l31.1-34.9c.8-.9.8-2.3-.2-3.1-.9-.7-2.2-.7-3.1.3l-29.5 33.1c-3.5-3-7.5-5.2-11.7-6.9 5.9-4.8 9.6-12 9.6-20.1 0-14.2-11.6-25.7-25.7-25.7s-25.7 11.5-25.7 25.7c0 8.1 3.7 15.3 9.6 20-16.3 6.5-27.9 22.3-27.9 40.9zm27.1-60.9c0-9.4 7.7-16.9 16.9-16.9 9.4 0 16.9 7.7 16.9 16.9 0 9.4-7.7 16.9-16.9 16.9-9.4 0-16.9-7.5-16.9-16.9z"/><path id="XMLID_53_" class="st0" d="M156.3 111.8c-21.6 0-39.1 17.5-39.1 39.1s17.5 39.1 39.1 39.1 39.1-17.5 39.1-39.1-17.5-39.1-39.1-39.1zM179 156h-17v17c0 3.3-2.7 6-6 6s-6-2.7-6-6v-17h-16c-3.3 0-6-2.7-6-6s2.7-6 6-6h16v-16c0-3.3 2.7-6 6-6s6 2.7 6 6v16h17c3.3 0 6 2.7 6 6s-2.7 6-6 6z"/></g></svg>