<svg xmlns="http://www.w3.org/2000/svg" viewBox="0 0 200 200"><path d="M169.6 54h-41.4V12.6L169.6 54zm-46.5 5.1V12.6H30V94h139.6V59.1h-46.5zm-65.6 70.4c-1-.6-2.1-1-3.4-1.2-1.3-.2-2.7-.3-4.1-.3h-9.5v16.7H50c1.4 0 2.8-.1 4.1-.3 1.3-.2 2.4-.6 3.4-1.2s1.8-1.4 2.4-2.5c.6-1.1.9-2.5.9-4.3 0-1.8-.3-3.2-.9-4.3-.6-1.1-1.4-2-2.4-2.6zM6.9 105.7v81.4h186v-81.4H6.9zM71.6 143c-.7 2.2-1.8 4.1-3.4 5.7-1.5 1.7-3.5 3-6 4-2.4 1-5.4 1.5-8.9 1.5H40.5v20H28.2v-55.8h25.2c3.5 0 6.5.5 8.9 1.5 2.4 1 4.4 2.4 6 4 1.5 1.7 2.7 3.6 3.4 5.7.7 2.1 1.1 4.4 1.1 6.6-.1 2.4-.5 4.6-1.2 6.8zm54.3 14.3c-1 3.4-2.6 6.4-4.7 8.9s-4.7 4.5-7.9 5.9c-3.2 1.4-6.9 2.1-11.1 2.1H78v-55.8h24.1c3.6 0 6.9.6 10 1.7 3.1 1.1 5.8 2.9 8.1 5.2 2.3 2.3 4 5.2 5.3 8.6 1.3 3.4 1.9 7.5 1.9 12.1 0 4.1-.5 7.9-1.5 11.3zm47.9-28.5h-27v12.9h23.4v9.5h-23.4v23.1h-12.3v-55.8h39.2l.1 10.3zm-62.2 5c-1.3-1.6-2.9-2.9-5-3.7-2.1-.9-4.6-1.3-7.6-1.3h-8.8V164h10.9c1.8 0 3.5-.3 5.2-.9 1.7-.6 3.2-1.5 4.5-2.9 1.3-1.3 2.3-3.1 3.1-5.2.8-2.1 1.2-4.7 1.2-7.8 0-2.8-.3-5.4-.8-7.6-.5-2.2-1.4-4.2-2.7-5.8z" fill="#3b77e3"/></svg>