<svg version="1.1" id="图层_1" xmlns="http://www.w3.org/2000/svg" x="0" y="0" viewBox="0 0 200 200" xml:space="preserve"><style>.st0{fill:#3b77e3}</style><g id="XMLID_31_"><path id="XMLID_34_" class="st0" d="M175.2 8H24.3C14.9 8 7 16.1 7 25.5v149.7c0 9.4 7.9 16.8 17.3 16.8h151c9.4 0 16.7-7.4 16.7-16.8V25.4C192 16 184.6 8 175.2 8zm5.8 167.1c0 3.4-2.6 6-6 6l.2-.1H24.3c-3.4 0-6.3-2.5-6.3-5.9V52.5c1-.8 1.8-1.5 2.9-1.5h157.8c1.1 0 2.3.7 2.3 1.5v122.6zM181 43c-1-.2-1.3 0-2.3 0H20.9c-1 0-1.9-.2-2.9 0V25.4c0-3.4 2.9-6.4 6.3-6.4h151c3.4 0 5.7 3 5.7 6.4V43z"/><path id="XMLID_36_" class="st0" d="M159.2 63H99c-2.4 0-4.4 1.6-4.4 4s2 4 4.4 4h60.1c2.4 0 4.4-1.6 4.4-4s-1.9-4-4.3-4z"/><path id="XMLID_37_" class="st0" d="M154.6 94h-20.4c-2.4 0-4.4 1.6-4.4 4s2 4 4.4 4h20.4c2.4 0 4.4-1.6 4.4-4s-2-4-4.4-4z"/><path id="XMLID_38_" class="st0" d="M154.6 124h-20.4c-2.4 0-4.4 2.1-4.4 4.5s2 4.5 4.4 4.5h20.4c2.4 0 4.4-2.1 4.4-4.5s-2-4.5-4.4-4.5z"/><path id="XMLID_43_" class="st0" d="M154.6 155h-30.4c-2.4 0-4.4 2.1-4.4 4.5s2 4.5 4.4 4.5h30.4c2.4 0 4.4-2.1 4.4-4.5s-2-4.5-4.4-4.5z"/><path id="XMLID_54_" class="st0" d="M127.4 103.2c-.9-.7-2.2-.7-3.1.3l-29.5 33.1c-3.5-3-7.5-5.2-11.7-6.9 5.9-4.8 9.6-12 9.6-20.1 0-14.2-11.6-25.7-25.7-25.7s-25.7 11.5-25.7 25.7c0 8.1 3.7 15.3 9.6 20-16.3 6.5-27.9 22.3-27.9 40.9 0 2.4 2 4.4 4.4 4.4 2.4 0 4.4-2 4.4-4.4 0-19.5 15.7-35.2 35.2-35.2 8.2 0 16.2 2.8 22.5 8.1 1.9 1.5 4.6 1.3 6.1-.5.4-.5.8-1.1.9-1.7l31.1-34.9c.8-.9.8-2.3-.2-3.1zM67 126.5c-9.4 0-16.9-7.5-16.9-16.9 0-9.4 7.7-16.9 16.9-16.9 9.4 0 16.9 7.7 16.9 16.9 0 9.4-7.7 16.9-16.9 16.9z"/></g></svg>