<svg version="1.1" id="图层_1" xmlns="http://www.w3.org/2000/svg" x="0" y="0" viewBox="0 0 200 200" xml:space="preserve"><style>.st0{fill:#3b77e3}</style><g id="XMLID_2_"><path id="XMLID_3_" class="st0" d="M81.7 133.5l47.2-30.8c1.8-1.3 1.8-3.5 0-4.8L81.7 67.2c-2.7-1.9-6.7-.4-6.7 2.4v61.5c0 2.8 4.1 4.3 6.7 2.4z"/><path id="XMLID_9_" class="st0" d="M200 37.5c0-6.9-5.6-12.5-12.5-12.5h-175C5.6 25 0 30.6 0 37.5v125c0 6.9 5.6 12.5 12.5 12.5h175c6.9 0 12.5-5.6 12.5-12.5v-125zM32 157.9c0 1.7-1.4 3.1-3.1 3.1H15.1c-1.7 0-3.1-1.4-3.1-3.1v-16.8c0-1.7 1.4-3.1 3.1-3.1h13.8c1.7 0 3.1 1.4 3.1 3.1v16.8zm0-49c0 1.7-1.4 3.1-3.1 3.1H15.1c-1.7 0-3.1-1.4-3.1-3.1V92.1c0-1.7 1.4-3.1 3.1-3.1h13.8c1.7 0 3.1 1.4 3.1 3.1v16.8zm0-50c0 1.7-1.4 3.1-3.1 3.1H15.1c-1.7 0-3.1-1.4-3.1-3.1V42.1c0-1.7 1.4-3.1 3.1-3.1h13.8c1.7 0 3.1 1.4 3.1 3.1v16.8zM154 161H45V39h109v122zm33-3.1c0 1.7-1.4 3.1-3.1 3.1h-13.8c-1.7 0-3.1-1.4-3.1-3.1v-16.8c0-1.7 1.4-3.1 3.1-3.1h13.8c1.7 0 3.1 1.4 3.1 3.1v16.8zm0-49c0 1.7-1.4 3.1-3.1 3.1h-13.8c-1.7 0-3.1-1.4-3.1-3.1V92.1c0-1.7 1.4-3.1 3.1-3.1h13.8c1.7 0 3.1 1.4 3.1 3.1v16.8zm0-50c0 1.7-1.4 3.1-3.1 3.1h-13.8c-1.7 0-3.1-1.4-3.1-3.1V42.1c0-1.7 1.4-3.1 3.1-3.1h13.8c1.7 0 3.1 1.4 3.1 3.1v16.8z"/></g></svg>